<?xml version="1.0" standalone="no"?>
<!DOCTYPE svg PUBLIC "-//W3C//DTD SVG 20010904//EN"
 "http://www.w3.org/TR/2001/REC-SVG-20010904/DTD/svg10.dtd">
<svg version="1.0" xmlns="http://www.w3.org/2000/svg"
 width="480.000000pt" height="288.000000pt" viewBox="0 0 480.000000 288.000000"
 preserveAspectRatio="xMidYMid meet">

<g transform="translate(0.000000,288.000000) scale(0.100000,-0.100000)"
fill="#000000" stroke="none">
<path d="M0 1440 l0 -1440 2400 0 2400 0 0 1440 0 1440 -2400 0 -2400 0 0
-1440z m3966 952 c-429 -257 -772 -468 -763 -470 9 -2 366 206 793 462 426
256 777 466 780 466 2 0 4 -634 4 -1410 0 -776 -2 -1410 -4 -1410 -3 0 -354
210 -780 466 -427 256 -784 464 -793 462 -9 -2 334 -213 763 -470 l779 -468
-2345 0 -2345 0 779 468 c429 257 772 468 763 470 -9 2 -366 -206 -793 -462
-426 -256 -777 -466 -780 -466 -2 0 -4 634 -4 1410 0 776 2 1410 4 1410 3 0
354 -210 780 -466 427 -256 784 -464 793 -462 9 2 -334 213 -763 470 l-779
468 2345 0 2345 0 -779 -468z"/>
<path d="M1920 1512 c-38 -38 -41 -89 -7 -126 36 -41 71 -43 107 -7 18 18 28
36 24 42 -5 8 -13 3 -26 -14 -21 -29 -65 -36 -86 -15 -7 7 -12 30 -12 53 0 23
5 46 12 53 17 17 75 15 82 -3 7 -19 26 -20 26 -1 0 19 -22 35 -58 42 -26 5
-36 1 -62 -24z"/>
<path d="M2561 1514 c-62 -52 -29 -157 49 -157 46 0 80 37 80 87 -1 44 -13 66
-47 84 -32 18 -48 15 -82 -14z m93 -26 c32 -46 7 -108 -43 -108 -32 0 -46 13
-56 53 -16 63 63 107 99 55z"/>
<path d="M1310 1445 c0 -69 3 -85 15 -85 10 0 15 11 15 35 0 34 1 35 38 35 45
0 62 14 62 50 0 38 -18 50 -77 50 l-53 0 0 -85z m98 38 c-2 -23 -8 -29 -35
-31 -31 -3 -33 -1 -33 27 0 29 3 31 36 31 33 0 35 -2 32 -27z"/>
<path d="M1510 1445 l0 -85 60 0 c33 0 60 4 60 10 0 6 -20 10 -45 10 l-45 0 0
75 c0 60 -3 75 -15 75 -12 0 -15 -16 -15 -85z"/>
<path d="M1711 1451 c-35 -90 -35 -91 -21 -91 6 0 15 11 20 25 8 20 16 25 45
25 29 0 37 -5 45 -25 5 -14 16 -25 24 -25 20 0 -46 164 -67 168 -11 2 -24 -21
-46 -77z m63 2 c6 -20 4 -23 -18 -23 -30 0 -29 -2 -15 40 12 34 19 30 33 -17z"/>
<path d="M2120 1445 l0 -85 60 0 c33 0 60 4 60 10 0 6 -20 10 -45 10 -43 0
-45 1 -45 30 0 29 2 30 45 30 25 0 45 5 45 10 0 6 -20 10 -45 10 -41 0 -45 2
-45 25 0 23 4 25 45 25 25 0 45 5 45 10 0 6 -27 10 -60 10 l-60 0 0 -85z"/>
<path d="M2310 1445 c0 -69 3 -85 15 -85 11 0 15 11 15 40 l0 40 45 0 45 0 0
-40 c0 -22 5 -40 10 -40 6 0 10 35 10 85 0 50 -4 85 -10 85 -5 0 -10 -16 -10
-35 0 -35 0 -35 -45 -35 -45 0 -45 0 -45 35 0 24 -5 35 -15 35 -12 0 -15 -16
-15 -85z"/>
<path d="M2770 1445 l0 -85 55 0 c30 0 55 5 55 10 0 6 -20 10 -45 10 l-45 0 0
75 c0 43 -4 75 -10 75 -6 0 -10 -35 -10 -85z"/>
<path d="M2950 1445 l0 -85 48 0 c63 0 92 28 92 88 0 59 -25 82 -90 82 l-50 0
0 -85z m101 49 c19 -23 15 -85 -7 -101 -10 -7 -30 -13 -46 -13 -28 0 -28 0
-28 65 l0 65 34 0 c18 0 39 -7 47 -16z"/>
<path d="M3160 1445 l0 -85 65 0 c37 0 65 4 65 10 0 6 -22 10 -50 10 -49 0
-50 1 -50 30 0 29 2 30 45 30 25 0 45 5 45 10 0 6 -20 10 -45 10 -41 0 -45 2
-45 25 0 23 3 25 50 25 28 0 50 5 50 10 0 6 -28 10 -65 10 l-65 0 0 -85z"/>
<path d="M3360 1445 c0 -69 3 -85 15 -85 10 0 15 11 15 35 0 33 2 35 34 35 35
0 46 -13 46 -51 0 -10 6 -19 13 -19 15 0 11 66 -4 76 -5 3 -1 16 7 30 15 23
15 26 -1 44 -14 15 -31 20 -72 20 l-53 0 0 -85z m108 39 c2 -15 -4 -23 -20
-28 -47 -12 -58 -8 -58 25 0 29 2 30 38 27 29 -2 38 -8 40 -24z"/>
</g>
</svg>
